# xmcd
#
# Track frame offsets:
#       150
#       10312
#       20025
#       27462
#       38012
#       49012
#       55475
#       64912
#       77825
#       88087
#       100175
#       113150
#       125975
#       139450
#       147450
#       157800
#       171437
#       183937
#       194975
#       208087
#
# Disc length: 2934 seconds
#
# Revision: 0
# Processed by: cddbd v1.4PL0 Copyright (c) Steve Scherf et al.
# Submitted via: CD-DA_X-Tractor v0.23
#
DISCID=330b7414
DTITLE=Peggy Lee - Peggy Lee 20 Golden Hits
DYEAR=1994
DGENRE=
TTITLE0=Peggy Lee20_The Lady is a Tramp
TTITLE1=Peggy Lee20_Too Young
TTITLE2=Peggy Lee20_If I Could Be With You
TTITLE3=Peggy Lee20_These Foolish Things
TTITLE4=Peggy Lee20_Just One More Chance
TTITLE5=Peggy Lee20_A Guy is a Guy
TTITLE6=Peggy Lee20_Shanghai
TTITLE7=Peggy Lee20_It Never Happened to Me
TTITLE8=Peggy Lee20_Make the Man Love Me
TTITLE9=Peggy Lee20_It's All Over Now
TTITLE10=Peggy Lee20_It Takes a Long Long Train
TTITLE11=Peggy Lee20_Golden Earrings
TTITLE12=Peggy Lee20_Love, Your Magic Spell is Everywhere
TTITLE13=Peggy Lee20_What is this Thing Called Love
TTITLE14=Peggy Lee20_I Got Lucky in the Rain
TTITLE15=Peggy Lee20_He's Just My Kind
TTITLE16=Peggy Lee20_Linger in My Arms A Little Longer
TTITLE17=Peggy Lee20_For Sentimental Reasons
TTITLE18=Peggy Lee20_My Last Affair
TTITLE19=Peggy Lee20_I'm Confessin'
EXTD=
EXTT0=
EXTT1=
EXTT2=
EXTT3=
EXTT4=
EXTT5=
EXTT6=
EXTT7=
EXTT8=
EXTT9=
EXTT10=
EXTT11=
EXTT12=
EXTT13=
EXTT14=
EXTT15=
EXTT16=
EXTT17=
EXTT18=
EXTT19=
PLAYORDER=
